 <svg  version="1.0" xmlns="http://www.w3.org/2000/svg"  width="450.000000pt" height="360.000000pt" viewBox="0 0 450.000000 360.000000"  preserveAspectRatio="xMidYMid meet">  <g transform="translate(0.000000,360.000000) scale(0.100000,-0.100000)" fill="#ffffff" stroke="none"> <path d="M2775 3066 c-27 -8 -266 -72 -530 -144 -264 -72 -599 -163 -745 -202 -297 -81 -333 -98 -370 -176 -21 -43 -22 -55 -16 -163 3 -64 9 -137 12 -162 l6 -46 -73 -7 c-148 -13 -330 -76 -447 -153 -203 -135 -293 -359 -236 -592 60 -249 251 -431 526 -500 105 -27 227 -35 322 -22 l79 11 41 -38 c55 -51 138 -89 244 -112 48 -11 93 -20 101 -20 7 0 -10 21 -38 46 -68 61 -95 113 -95 184 -1 53 2 57 52 109 28 30 64 79 79 108 l28 53 121 0 122 0 85 -142 c84 -143 288 -481 291 -485 1 -1 24 139 52 312 l49 315 172 0 c169 0 172 0 179 -22 11 -37 90 -143 137 -184 l44 -39 -53 -160 c-29 -88 -51 -161 -50 -162 1 -1 71 43 156 98 85 54 159 99 165 99 5 0 37 -10 70 -21 213 -71 508 -63 675 18 144 70 274 230 310 381 51 216 -35 388 -272 545 -209 139 -486 222 -676 203 -61 -6 -62 -6 -58 16 11 46 38 699 32 741 -10 66 -60 161 -111 212 -67 67 -156 106 -253 110 -45 3 -98 -2 -127 -9z m219 -39 c10 -9 23 -17 29 -17 7 0 6 4 -3 10 -8 5 -11 10 -6 10 13 0 115 -80 126 -99 5 -9 10 -12 10 -7 0 17 54 -70 73 -119 18 -46 18 -66 11 -260 -4 -115 -8 -226 -9 -245 -16 -273 -17 -295 -2 -315 14 -18 28 -20 129 -21 67 0 144 -7 188 -17 41 -9 79 -17 83 -17 5 0 6 -4 3 -8 -3 -5 9 -9 26 -10 31 -1 250 -102 275 -128 8 -8 19 -14 24 -14 5 0 18 -8 29 -17 10 -10 43 -38 73 -63 113 -95 167 -197 169 -325 2 -77 -9 -119 -54 -212 -45 -94 -129 -195 -173 -209 -11 -4 -26 -15 -32 -24 -7 -10 -33 -24 -57 -31 -25 -7 -43 -16 -41 -19 2 -3 -4 -6 -13 -7 -9 0 -51 -8 -92 -17 -94 -21 -276 -20 -380 2 -41 9 -76 19 -78 23 -2 4 -12 4 -24 1 -12 -3 -19 -1 -16 4 4 5 -8 9 -25 10 -18 1 -41 4 -52 8 -14 5 -42 -7 -98 -43 -43 -27 -86 -56 -95 -64 -10 -8 -23 -12 -31 -9 -8 2 -11 0 -8 -5 3 -5 0 -10 -8 -10 -19 0 -19 12 4 83 39 119 42 140 27 168 -7 14 -36 49 -65 77 -28 29 -51 58 -51 66 0 8 -4 11 -10 8 -5 -3 -10 1 -10 9 0 8 -7 22 -16 30 -8 9 -12 20 -9 26 4 6 3 9 -2 8 -4 -1 -19 4 -31 11 -21 11 -118 15 -309 12 -48 -1 -70 -29 -79 -98 -3 -32 -11 -69 -16 -82 -5 -14 -9 -48 -9 -78 -1 -29 -4 -51 -8 -49 -3 2 -7 -15 -8 -37 -7 -116 -37 -221 -51 -179 -2 7 -9 9 -14 6 -7 -4 -8 -2 -4 5 4 6 1 14 -7 17 -8 3 -20 23 -27 45 -7 21 -17 39 -21 39 -4 0 -11 9 -14 21 -4 12 -15 29 -26 40 -10 10 -21 31 -25 46 -4 16 -18 39 -31 52 -14 13 -32 40 -40 59 -8 19 -21 41 -29 49 -8 8 -11 20 -7 26 3 7 2 9 -2 5 -5 -5 -21 14 -36 40 -15 26 -33 53 -41 59 -8 7 -61 13 -126 15 -66 2 -112 7 -112 13 0 6 -5 2 -11 -7 -5 -10 -16 -18 -23 -18 -7 0 -32 -28 -54 -62 -22 -35 -60 -82 -83 -106 -40 -40 -42 -45 -42 -105 -1 -48 6 -76 27 -121 15 -32 26 -59 24 -61 -2 -1 -33 6 -70 18 -48 14 -86 35 -130 70 -69 55 -71 56 -202 44 -87 -8 -226 6 -296 29 -82 28 -190 77 -190 85 0 5 -5 9 -11 9 -15 0 -88 58 -119 95 -14 16 -33 37 -42 47 -18 18 -61 89 -79 128 -38 88 -55 251 -37 355 12 66 74 180 126 229 58 56 123 105 139 106 6 0 13 4 15 9 5 14 183 81 256 96 37 8 94 18 127 21 36 4 65 13 72 23 10 12 11 58 6 190 -4 108 -3 172 3 168 6 -3 16 9 24 26 14 33 44 63 70 71 8 2 49 14 90 26 41 12 89 29 107 36 17 8 38 11 47 8 9 -3 22 -2 29 4 13 10 117 38 130 34 4 -1 7 3 7 9 0 6 9 9 20 6 11 -3 18 -1 14 4 -3 5 7 9 23 9 15 0 48 7 72 15 24 9 58 16 77 17 18 1 31 4 29 8 -2 4 9 7 26 8 17 0 36 5 42 10 11 10 43 18 114 29 18 3 30 9 27 14 -3 5 3 9 14 9 21 0 209 47 317 80 39 12 85 21 102 22 18 0 31 4 28 8 -5 9 115 41 127 34 4 -3 8 0 8 5 0 6 10 11 23 11 12 1 36 7 52 14 46 20 207 16 229 -7z"/> <path d="M2185 2587 c-9 -5 -28 -6 -43 -3 -17 4 -22 3 -14 -2 10 -7 2 -11 -25 -15 -43 -7 -142 -84 -135 -105 2 -7 -2 -11 -10 -10 -7 2 -13 -4 -13 -13 0 -9 -5 -23 -11 -30 -18 -23 -24 -48 -13 -55 6 -3 8 -12 5 -20 -3 -8 1 -14 9 -14 8 0 15 -4 15 -9 0 -5 23 -17 50 -27 28 -10 50 -21 50 -25 0 -4 13 -6 30 -4 19 3 45 20 73 49 49 52 74 57 105 21 24 -27 28 -45 12 -45 -5 0 -10 -8 -10 -17 0 -10 -14 -29 -32 -43 -53 -42 -109 -103 -129 -142 -32 -62 -8 -158 39 -158 14 0 14 -2 3 -9 -10 -7 -7 -9 12 -8 14 1 24 4 22 7 -2 3 22 5 53 4 53 0 59 2 78 30 12 17 20 34 18 37 -5 9 92 109 106 109 5 0 9 4 8 8 -2 4 12 22 30 39 17 18 32 39 32 48 0 10 5 13 12 9 8 -5 9 -2 5 10 -4 9 0 27 7 39 16 25 14 92 -5 170 -8 34 -14 45 -20 36 -7 -11 -9 -11 -9 2 0 29 -64 86 -125 112 -65 27 -154 39 -180 24z m158 -47 c102 -38 161 -122 161 -230 0 -85 -14 -110 -124 -217 -77 -75 -90 -92 -90 -120 l0 -33 -84 0 c-93 0 -96 2 -96 69 0 47 36 99 115 167 91 78 106 125 56 175 -53 53 -135 30 -167 -48 -14 -33 -28 -41 -38 -24 -3 4 -33 19 -67 31 -33 13 -63 29 -66 36 -7 19 41 105 79 142 73 70 212 93 321 52z"/> <path d="M988 1906 c-57 -21 -82 -40 -117 -92 -35 -54 -38 -74 -13 -102 15 -17 89 -52 110 -52 5 0 27 16 49 35 26 22 47 33 57 29 31 -12 17 -49 -42 -106 -75 -74 -90 -121 -55 -173 17 -25 32 -35 51 -36 l27 -1 -25 -7 c-58 -14 -91 -58 -92 -120 -1 -100 87 -155 178 -111 24 12 44 28 44 35 0 7 5 15 12 17 7 3 12 24 11 57 -1 46 -5 57 -34 87 -18 19 -39 34 -47 34 -9 0 -4 8 12 21 14 11 26 26 26 32 0 7 26 40 58 73 89 95 94 102 99 163 14 157 -152 273 -309 217z m205 -52 c51 -37 77 -86 77 -144 -1 -58 -12 -77 -94 -161 -53 -53 -66 -73 -61 -89 6 -19 2 -20 -55 -20 -56 0 -61 2 -71 27 -14 39 2 70 77 145 69 70 77 95 44 128 -36 36 -100 17 -120 -36 l-9 -23 -53 21 c-29 12 -57 25 -61 28 -11 10 25 79 56 108 64 60 196 67 270 16z m-67 -508 c22 -22 34 -44 34 -60 0 -66 -58 -115 -119 -101 -40 9 -81 58 -81 97 0 42 57 98 100 98 23 0 42 -9 66 -34z"/> <path d="M2133 1851 c-17 -11 -35 -17 -39 -13 -4 4 -5 0 -2 -8 5 -15 -15 -43 -24 -34 -3 2 -5 -2 -6 -8 0 -7 -4 -30 -7 -50 -12 -60 2 -103 45 -144 22 -21 48 -39 57 -41 46 -8 101 -8 96 0 -3 5 1 7 9 5 39 -9 111 83 111 141 0 39 -14 101 -23 101 -5 0 -12 9 -15 20 -4 11 -10 18 -14 16 -4 -3 -15 4 -24 15 -23 27 -119 27 -164 0z m119 -11 c101 -28 128 -166 47 -235 -24 -20 -41 -25 -82 -25 -61 1 -91 15 -118 56 -24 36 -25 106 -2 145 16 26 83 69 108 69 6 0 27 -5 47 -10z"/> <path d="M3423 1783 c-18 -2 -33 -8 -33 -14 0 -5 -6 -9 -13 -9 -7 0 -24 -10 -37 -22 -14 -13 -28 -22 -32 -20 -5 1 -7 -1 -6 -5 3 -13 -24 -63 -34 -63 -12 0 2 -52 19 -72 8 -9 28 -20 44 -23 16 -4 31 -11 34 -16 12 -18 45 -8 80 26 32 29 40 32 56 22 10 -6 19 -19 19 -27 0 -16 -55 -70 -71 -70 -5 0 -9 -7 -9 -16 0 -8 -4 -13 -8 -10 -5 3 -19 -17 -32 -43 -20 -43 -21 -53 -10 -85 6 -20 21 -41 32 -47 19 -10 19 -12 -11 -41 -17 -17 -31 -35 -31 -40 0 -5 -5 -6 -11 -2 -7 4 -10 1 -7 -7 3 -8 1 -24 -3 -36 -5 -13 -5 -23 0 -23 5 0 9 -11 9 -25 0 -29 42 -83 61 -77 8 3 11 0 8 -5 -9 -14 88 -10 105 4 8 7 17 10 21 7 9 -9 47 72 47 101 0 44 -27 93 -60 110 l-32 16 32 30 c21 20 29 36 25 47 -3 9 -3 14 0 10 9 -9 127 111 120 123 -4 5 -2 9 3 9 5 0 14 25 20 56 10 48 9 62 -8 106 -11 28 -16 56 -13 61 3 6 1 7 -5 3 -6 -4 -20 2 -31 13 -11 11 -22 17 -25 14 -3 -4 -6 -1 -6 5 0 24 -129 46 -207 35z m173 -48 c53 -27 88 -70 99 -123 13 -65 -2 -99 -81 -181 -45 -48 -74 -87 -74 -100 0 -19 -5 -21 -60 -21 -55 0 -60 2 -66 25 -11 44 6 78 72 141 49 47 64 68 64 89 0 63 -69 87 -115 40 -14 -13 -25 -32 -25 -41 0 -9 -5 -14 -12 -11 -7 3 -36 15 -65 27 l-52 22 19 37 c57 112 183 153 296 96z m-33 -526 c10 -13 17 -38 17 -64 0 -36 -5 -48 -31 -69 -19 -17 -43 -26 -64 -26 -21 0 -45 9 -64 26 -25 21 -31 33 -31 66 0 51 14 77 52 92 39 17 97 5 121 -25z"/> <path d="M1772 1450 c0 -19 2 -27 5 -17 2 9 2 25 0 35 -3 9 -5 1 -5 -18z"/> </g> </svg> 